
    <svg width="300.0" height="300.0" xmlns="http://www.w3.org/2000/svg">
      <path d="M 93.4496668257 30.0 L 157.414377826 113.5 L 86.6643778262 113.5 L 22.6996668257 30.0 L 93.4496668257 30.0 " stroke="black" fill="#000" stroke-width="0" stroke-opacity="0.0" fill-opacity="1.0" />
      <path d="M 213.335622174 186.5 L 277.300333174 270.0 L 206.550333174 270.0 L 150.0 196.17878286 L 93.4496668257 270.0 L 22.6996668257 270.0 L 86.6643778262 186.5 L 213.335622174 186.5 " stroke="black" fill="#000" stroke-width="0" stroke-opacity="0.0" fill-opacity="1.0" />
      <path d="M 150.0 210.180297302 L 109.554234887 262.978493902 A 120.0 120.0 0 0 0 190.445765113 262.978493902 L 150.0 210.180297302 " stroke="black" fill="#000" stroke-width="0" stroke-opacity="0.0" fill-opacity="1.0" />
      <path d="M 266.806463862 177.5 A 120.0 120.0 0 0 0 109.554234887 37.0215060976 L 146.384961292 85.1006048169 A 65.0 65.0 0 0 1 208.896094947 122.5 L 82.8329954809 122.5 L 51.4497699278 81.5321086003 A 120.0 120.0 0 0 0 51.4497699278 218.4678914 L 82.8329954809 177.5 L 266.806463862 177.5 " stroke="black" fill="#000" stroke-width="0" stroke-opacity="0.0" fill-opacity="1.0" />
    </svg>
    